<svg xmlns="http://www.w3.org/2000/svg" width="140" height="180" viewBox="0 0 140 180" fill="none"><defs><linearGradient id="rb" x1="0" y1="0" x2="1" y2="1"><stop offset="0" stop-color="#d8f7ff"/><stop offset="1" stop-color="#7fd4ff"/></linearGradient><linearGradient id="rr" x1="0" y1="0" x2="0" y2="1"><stop offset="0" stop-color="#ff6448"/><stop offset="1" stop-color="#c62828"/></linearGradient><linearGradient id="rf" x1="0" y1="0" x2="0" y2="1"><stop offset="0" stop-color="#ffe182"/><stop offset="1" stop-color="#ff8c1a"/></linearGradient><filter id="glow"><feGaussianBlur stdDeviation="5" result="b"/><feMerge><feMergeNode in="b"/><feMergeNode in="SourceGraphic"/></feMerge></filter></defs><g filter="url(#glow)"><path d="M70 10C88 28 102 58 102 92V116H38V92C38 58 52 28 70 10Z" fill="url(#rb)" stroke="#194a8d" stroke-width="4"/><path d="M70 20C83 35 92 58 92 88V105H48V88C48 58 57 35 70 20Z" fill="#ffffff" fill-opacity="0.75"/><circle cx="70" cy="63" r="16" fill="#7fd4ff" stroke="#194a8d" stroke-width="4"/><circle cx="70" cy="63" r="8" fill="#dff7ff"/><path d="M38 96L20 116L38 128V96Z" fill="url(#rr)" stroke="#8a1b1b" stroke-width="4"/><path d="M102 96L120 116L102 128V96Z" fill="url(#rr)" stroke="#8a1b1b" stroke-width="4"/><path d="M50 118H90V140C90 153 81 164 70 170C59 164 50 153 50 140V118Z" fill="url(#rr)" stroke="#8a1b1b" stroke-width="4"/><path d="M56 140C56 154 64 166 70 172C76 166 84 154 84 140C84 140 73 145 70 145C67 145 56 140 56 140Z" fill="url(#rf)"/><path d="M70 0L76 12H64L70 0Z" fill="#ffe082"/></g></svg>