<svg xmlns="http://www.w3.org/2000/svg" width="120" height="150" viewBox="0 0 120 150" fill="none"><defs><linearGradient id="a" x1="0" y1="0" x2="1" y2="1"><stop stop-color="#fff"/><stop offset="1" stop-color="#7fd4ff"/></linearGradient><linearGradient id="b" x1="0" y1="0" x2="0" y2="1"><stop stop-color="#ff7a59"/><stop offset="1" stop-color="#db2d2d"/></linearGradient><linearGradient id="c" x1="0" y1="0" x2="0" y2="1"><stop stop-color="#fff3a1"/><stop offset="1" stop-color="#ff9c2a"/></linearGradient></defs><path d="M60 10C75 25 88 51 88 79V99H32V79C32 51 45 25 60 10Z" fill="url(#a)" stroke="#194a8d" stroke-width="4"/><circle cx="60" cy="56" r="14" fill="#7fd4ff" stroke="#194a8d" stroke-width="4"/><circle cx="60" cy="56" r="6" fill="#dff7ff"/><path d="M32 83L17 100L32 110V83Z" fill="url(#b)" stroke="#8a1b1b" stroke-width="4"/><path d="M88 83L103 100L88 110V83Z" fill="url(#b)" stroke="#8a1b1b" stroke-width="4"/><path d="M42 101H78V118C78 129 70 138 60 144C50 138 42 129 42 118V101Z" fill="url(#b)" stroke="#8a1b1b" stroke-width="4"/><path d="M48 118C48 129 55 138 60 144C65 138 72 129 72 118C72 118 63 122 60 122C57 122 48 118 48 118Z" fill="url(#c)"/></svg>